<svg width="57" height="48" viewBox="0 0 57 48" fill="none" xmlns="http://www.w3.org/2000/svg">
<path d="M1.75 45.4494H3.60954L3.60907 46.0172L3.60866 46.5176H4.10907H53.1208H53.6208V46.0176V45.4494H55.2194H55.7194V44.9494V43.3753V43.3532L55.7174 43.3311L55.1574 37.0285L55.1549 37.001L55.1494 36.9739L52.0689 21.7114L51.16 14.6498L51.1577 14.6319L51.1541 14.6142L49.1215 4.59112L49.103 4.49981L49.0528 4.4213L47.4407 1.89801L47.3723 1.79091L47.261 1.72949L45.2284 0.607207L45.1155 0.544922H44.9867H13.0249H12.9378L12.8558 0.574412L11.1035 1.20446L11.0231 1.23337L10.9568 1.28737L9.06433 2.82956L8.92511 2.943L8.88989 3.1191L8.39976 5.56991L8.39925 5.5724L6.22692 16.154L6.22687 16.154L6.22554 16.161L4.26298 26.464L4.26296 26.464L4.26221 26.4681L2.43982 36.4911L2.43916 36.4949L1.25739 43.2916L1.25 43.3341V43.3773V44.9494V45.4494H1.75Z" fill="white" fill-opacity="0.46" stroke="black"/>
</svg>
